<svg width="512" height="512" xmlns="http://www.w3.org/2000/svg" version="1.1" enable-background="new 0 0 512 512" xml:space="preserve">
 <g>
  <title>Layer 1</title>
  <path fill="#ffffff" d="m366.65924,484.68503c-22.88464,11.08072 -46.66012,18.22049 -71.3276,22.0834c-10.43357,1.63385 -21.13422,1.59427 -31.71888,2.22452c-22.63321,1.34769 -44.9125,-1.21725 -66.8495,-6.651c-35.59259,-8.81619 -68.04523,-24.17984 -96.45296,-47.55606c-8.8273,-7.26383 -17.78235,-14.5369 -25.6185,-22.81018c-24.33342,-25.69089 -43.06432,-54.96778 -55.06229,-88.47043c-6.39681,-17.86224 -10.70681,-36.16342 -13.46023,-54.86517c-0.77009,-5.23062 -1.01053,-10.56589 -1.12067,-15.86093c-0.17834,-8.57343 -0.04541,-17.15331 -0.04853,-25.73047c-0.00765,-21.04883 3.92973,-41.4603 9.71996,-61.60793c9.156,-31.85905 24.40609,-60.60001 44.97992,-86.41288c20.14938,-25.28036 44.52916,-45.76171 72.68244,-61.81961c24.90927,-14.2076 51.49922,-23.72254 79.57635,-28.87766c11.18493,-2.05361 22.69102,-2.51327 34.08008,-3.24334c7.22167,-0.46293 14.49718,-0.06509 21.74843,-0.09065c19.53964,-0.06889 38.57779,3.45733 57.29334,8.60588c26.60748,7.31956 51.40039,18.79924 74.08444,34.54502c19.2757,13.37991 36.65665,28.78982 51.75992,46.9678c20.20703,24.32071 35.44464,51.29108 45.51498,81.08904c6.04013,17.87266 10.61609,36.2173 11.6193,55.24966c0.4443,8.42874 2.13989,16.87743 1.74621,25.24548c-0.6911,14.69135 -1.77597,29.45188 -4.09567,43.9596c-4.10764,25.68979 -12.45999,50.13333 -24.65842,73.18005c-9.88882,18.68311 -21.95419,35.79138 -35.92343,51.72245c-17.14484,19.55255 -37.30136,35.25705 -59.22961,48.86474c-6.05597,3.75809 -12.59336,6.74036 -19.23908,10.25867m-136.15942,-63.01315c62.42846,0 124.85696,0 187.59668,0c-0.15406,-1.79911 -0.11264,-3.13001 -0.39798,-4.38669c-12.66883,-55.79136 -45.15601,-95.30542 -97.53571,-118.32123c-2.24713,-0.98746 -5.51581,-1.02399 -7.86017,-0.21072c-36.88955,12.79684 -73.68603,12.87383 -110.56123,-0.04899c-2.21114,-0.7749 -5.27615,-0.79232 -7.40103,0.11252c-47.17456,20.08823 -78.48183,54.75162 -94.22553,103.469c-1.97201,6.10217 -3.16005,12.45776 -4.88296,19.38611c45.40178,0 89.83484,0 135.26793,0m15.839,-165.47821c47.86104,6.61682 84.01463,-29.79917 88.17342,-65.36217c-22.94675,-3.04825 -41.33887,-14.36086 -56.12543,-32.09889c-27.23151,28.78453 -62.07623,34.3733 -98.97855,33.62145c3.88813,31.15891 33.37476,59.41697 66.93056,63.83961m64.614,-136.65382c-25.76892,-22.71272 -61.26964,-27.35386 -90.61066,-11.84585c-25.67262,13.56911 -45.2191,45.05016 -42.18184,68.15987c19.76136,1.25433 39.12998,-0.36185 57.90473,-7.37815c19.50873,-7.2906 32.79466,-21.19893 42.22844,-40.28889c12.22842,25.62398 29.90313,42.52623 57.91363,46.86975c-0.04541,-20.16106 -8.84662,-39.50247 -25.2543,-55.51673z" id="svg_2"/>
  <path fill="#093456" d="m229.9998,421.67188c-44.93307,0 -89.36613,0 -134.76791,0c1.72291,-6.92835 2.91095,-13.28394 4.88296,-19.38611c15.7437,-48.71738 47.05097,-83.38077 94.22553,-103.469c2.12488,-0.90484 5.18989,-0.88742 7.40103,-0.11252c36.8752,12.92282 73.67168,12.84583 110.56123,0.04899c2.34436,-0.81327 5.61304,-0.77674 7.86017,0.21072c52.3797,23.01581 84.86688,62.52987 97.53571,118.32123c0.28534,1.25668 0.24392,2.58758 0.39798,4.38669c-62.73972,0 -125.16822,0 -188.0967,0z" id="svg_3"/>
  <path fill="#093456" d="m245.89819,256.14142c-33.11517,-4.37039 -62.6018,-32.62845 -66.48993,-63.78736c36.90232,0.75185 71.74704,-4.83692 98.97855,-33.62145c14.78656,17.73803 33.17868,29.05064 56.12543,32.09889c-4.15879,35.563 -40.31238,71.97899 -88.61405,65.30992z" id="svg_4"/>
  <path fill="#093456" d="m311.21405,119.78091c16.14645,15.7732 24.94766,35.11461 24.99307,55.27567c-28.0105,-4.34352 -45.68521,-21.24577 -57.91363,-46.86975c-9.43378,19.08996 -22.71971,32.99829 -42.22844,40.28889c-18.77475,7.0163 -38.14337,8.63248 -57.90473,7.37815c-3.03726,-23.10971 16.50922,-54.59076 42.18184,-68.15987c29.34102,-15.50801 64.84174,-10.86687 90.87189,12.08691z" id="svg_5"/>
 </g>

</svg>