<svg width="512" height="512" xmlns="http://www.w3.org/2000/svg" xml:space="preserve" enable-background="new 0 0 512 512" version="1.1">

 <g>
  <title>Layer 1</title>
  <path id="svg_3" d="m307.04123,173.94458c10.20276,4.33627 20.65738,8.16833 30.55597,13.11343c20.83206,10.4072 38.14032,25.28504 53.13412,43.08426c14.57416,17.30111 24.81907,36.96421 31.69715,58.25321c3.389,10.4895 5.01052,21.66202 6.38461,32.65634c1.16644,9.33328 1.33356,18.86957 1.05255,28.28946c-0.5961,19.98074 -5.4183,39.14319 -12.92718,57.60373c-6.32554,15.55139 -14.9238,29.94659 -25.56958,42.79901c-9.75577,11.77789 -20.87262,22.36087 -33.48865,31.33023c-21.13944,15.02902 -44.53412,24.51694 -69.7721,29.76178c-3.84796,0.79965 -7.82748,0.96613 -11.92715,1.79471c-6.20212,0.36926 -12.22327,0.36926 -18.71246,-0.09937c-0.46582,-10.15906 -0.46357,-19.84939 -0.03406,-29.54217c3.05255,-0.32871 5.69446,-0.55686 8.30026,-0.99823c11.54877,-1.95627 23.46527,-2.75769 34.55579,-6.20575c28.87234,-8.97641 52.42743,-26.03589 70.67505,-50.27286c19.12783,-25.40604 28.3504,-54.24222 28.51535,-85.79291c0.09124,-17.45288 -3.05521,-34.58063 -9.61805,-50.95947c-9.39917,-23.45764 -23.58896,-43.44605 -43.23938,-59.31953c-17.02066,-13.74921 -36.20922,-23.34675 -57.71005,-27.99976c-10.32178,-2.23375 -20.65158,-4.51532 -31.90918,-2.99584c0,20.33611 0,40.4455 -0.27282,60.74747c-9.16668,13.0206 -18.00321,25.88928 -27.0266,38.62558c-1.1328,1.59891 -3.07889,3.05322 -4.94104,3.63178c-9.97447,3.09881 -20.05156,5.86563 -30.07292,8.81607c-4.83982,1.42489 -9.63515,3.00082 -15.21726,4.74835c7.94454,10.39075 15.37366,19.92444 22.58074,29.62308c2.91069,3.91696 7.25311,8.03878 7.60255,12.33893c0.85555,10.52816 -0.28723,21.21325 -0.52029,31.83752c-0.122,5.56091 -0.02153,11.12671 -0.02153,17.30835c9.20565,-3.24713 17.60562,-6.29114 26.06236,-9.16821c7.20427,-2.45093 14.47388,-4.70981 21.74915,-6.57993c0.05029,31.18881 0.06604,61.9039 -0.3761,92.62079c-16.96781,-0.43503 -33.02283,-3.13257 -48.60929,-8.82855c-24.3603,-8.90241 -44.77978,-23.5354 -61.1903,-43.29703c-15.73009,-18.94226 -25.76743,-40.8432 -30.12928,-65.30008c-3.06216,-17.16956 -3.0534,-34.18826 0.12188,-51.3042c4.61653,-24.88477 15.03515,-46.88159 31.47155,-66.20361c16.31201,-19.1758 36.11925,-33.1725 59.66474,-41.86519c13.92887,-5.14237 28.2696,-8.41919 43.24862,-8.23979c4.15601,0.04979 6.21211,-1.54966 5.984,-6.29174c-0.39179,-8.14396 -0.08268,-16.32164 0.38885,-24.5496c6.4686,0.22758 12.48053,0.51962 18.89676,0.87326c3.12915,0.54489 5.86301,0.98301 8.57724,1.52012c7.35977,1.45635 14.71121,2.95467 22.06598,4.43636z" fill="#FFB012"/>
  <path id="svg_4" d="m257.04462,167.17926c-0.0149,8.16354 -0.32401,16.34122 0.06778,24.48518c0.22811,4.74208 -1.82799,6.34153 -5.984,6.29174c-14.97902,-0.1794 -29.31975,3.09742 -43.24862,8.23979c-23.54549,8.69269 -43.35273,22.68939 -59.66474,41.86519c-16.4364,19.32202 -26.85502,41.31884 -31.47155,66.20361c-3.17528,17.11594 -3.18404,34.13464 -0.12188,51.3042c4.36185,24.45688 14.39919,46.35782 30.12928,65.30008c16.41052,19.76163 36.83,34.39462 61.1903,43.29703c15.58646,5.69598 31.64148,8.39352 48.6051,8.83215c0.45371,0.00177 0.46091,-0.00662 0.46091,-0.00662c-0.00226,9.69037 -0.00451,19.3807 -0.00699,29.53976c-6.02136,0.46863 -12.04251,0.46863 -18.53193,0.46863c-6.94577,-1.3226 -13.43407,-2.59467 -19.89887,-3.97672c-26.78434,-5.72592 -50.63389,-17.77172 -71.72854,-34.92153c-16.32065,-13.26859 -29.57907,-29.39463 -40.14917,-47.71268c-9.07952,-15.73487 -15.60121,-32.52252 -19.31997,-50.1409c-3.75325,-17.78174 -4.41002,-35.89087 -2.52809,-54.15823c2.42366,-23.52595 9.36212,-45.46708 20.68466,-66.08167c12.04548,-21.9308 28.41421,-40.077 48.45627,-55.05333c15.91898,-11.89535 33.44197,-20.4863 52.99629,-26.80872c10.8754,-2.15402 20.98961,-4.16958 31.53949,-6.16932c6.4652,-0.25531 12.49474,-0.52648 18.52427,-0.79764z" fill="#FFDB2D"/>
  <path stroke="null" id="svg_5" d="m219.10312,136.13571c-30.04692,-12.87874 -60.07831,-25.79618 -90.16179,-38.58372c-3.47968,-1.4791 -4.8247,-3.32789 -4.79544,-7.48668c0.21606,-30.7076 0.09454,-61.41774 -0.03334,-92.5979c38.90834,-0.47083 77.92924,-0.47083 117.39197,0.01105c0.49066,41.65891 0.5395,82.83595 0.2738,124.21103c-3.00293,1.43192 -5.89793,2.33824 -8.33623,3.96863c-4.91122,3.28394 -9.5738,6.96208 -14.33897,10.4776z" fill="#0166E3"/>
  <path stroke="null" id="svg_6" d="m390.53134,-2.99999c0.33957,1.86668 0.09949,3.73327 0.09796,5.60005c-0.02374,28.98983 -0.01663,57.97969 -0.01663,86.96954c0,1.86736 0.00003,3.73472 0.00003,5.7187c-31.51004,13.55065 -62.76507,26.99162 -94.65787,40.43517c-7.3142,-6.00211 -14.16922,-11.71027 -22.9281,-14.71405c-0.00131,-41.65362 -0.01403,-82.83152 -0.02673,-124.00942c39.02091,0 78.04178,0 117.53134,0z" fill="#E00120"/>
  <path id="svg_7" d="m242.09285,121.9128c-0.04883,-39.99226 -0.09767,-79.98452 -0.11968,-120.44479c4.71609,-0.46801 9.40532,-0.46801 14.56119,0.00065c0.47193,39.63694 0.47727,78.80523 0.05469,118.12031c-5.11734,0.87248 -9.80678,1.59816 -14.4962,2.32383z" fill="#EFEFEF"/>
  <path stroke="null" id="svg_8" d="m257.017,119.44217c-0.00537,-39.16828 -0.01071,-78.33657 -0.01651,-117.97351c4.68875,-0.46866 9.37802,-0.46866 14.53339,-0.46866c0.47882,39.99057 0.49154,79.98113 0.10107,120.42647c-5.13547,-0.1846 -9.86777,-0.82398 -14.57968,-1.59445c0.02038,-0.13108 -0.03827,-0.38985 -0.03827,-0.38985z" fill="#D4D3D3"/>
  <path id="svg_9" d="m241.77832,122.10515c5.00395,-0.91802 9.69339,-1.6437 14.81073,-2.51618c0.42795,-0.1468 0.4866,0.11197 0.45285,0.71504c-0.02328,10.24406 -0.01282,19.88503 -0.39969,29.5976c-2.12117,0.4307 -3.88481,0.65947 -5.56181,1.17179c-6.71068,2.05009 -13.82327,10.4186 -12.99573,16.88766c-10.1142,2.01558 -20.22841,4.03114 -30.77171,6.02585c-1.01312,-10.35802 0.61891,-20.25354 5.82501,-29.32092c1.60792,-2.80051 3.75287,-5.29268 5.80853,-8.22815c4.92179,-3.7165 9.58437,-7.28881 14.49559,-10.47826c2.4383,-1.58348 5.3333,-2.46372 8.33623,-3.85443z" fill="#FFB013"/>
  <path id="svg_10" d="m257.03958,149.83002c-0.0105,-9.64098 -0.02096,-19.28195 -0.01806,-29.39492c4.74566,0.16739 9.47796,0.80677 14.60205,1.45338c9.16204,2.46239 16.01706,8.00596 22.99078,13.98515c8.93274,10.9776 13.58017,23.11075 12.40805,37.61133c-7.33594,-1.02207 -14.68738,-2.52039 -22.04715,-3.97674c-2.71423,-0.53711 -5.44809,-0.97523 -8.5618,-1.91546c-1.59814,-9.95667 -7.65793,-15.48047 -19.37387,-17.76274z" fill="#FF7400"/>
  <path id="svg_11" d="m257.00424,258.99976c0,-20.10941 0,-40.2188 0,-60.55491c11.2576,-1.51948 21.5874,0.76209 31.90918,2.99584c21.50083,4.65301 40.68939,14.25055 57.71005,27.99976c19.65042,15.87348 33.84021,35.86189 43.23938,59.31953c6.56284,16.37884 9.70929,33.50659 9.61805,50.95947c-0.16495,31.55069 -9.38752,60.38687 -28.51535,85.79291c-18.24762,24.23697 -41.80271,41.29645 -70.67505,50.27286c-11.09052,3.44806 -23.00702,4.24948 -34.55579,6.20575c-2.6058,0.44137 -5.24771,0.66952 -8.30026,0.99823c-0.42725,0.00241 -0.43445,0.0108 -0.4303,0.0072c-0.01153,-30.71866 -0.02728,-61.43375 -0.07919,-92.62256c-0.03617,-0.47376 -0.02698,-0.49472 0.36899,-0.45172c15.86679,5.40008 31.33764,10.7572 47.71179,16.42709c0,-2.52533 0.03579,-4.28164 -0.00568,-6.03613c-0.32233,-13.63089 -0.76376,-27.26044 -0.89114,-40.89301c-0.02161,-2.31256 0.75522,-5.01196 2.07773,-6.8879c4.29885,-6.09781 9.03955,-11.88306 13.57739,-17.81369c4.89059,-6.39167 9.7442,-12.81162 14.93039,-19.63563c-2.08484,-0.86163 -3.38263,-1.53955 -4.76056,-1.9454c-12.7258,-3.74841 -25.5427,-7.21307 -38.14917,-11.32419c-3.32938,-1.08578 -6.73819,-3.57696 -8.87048,-6.36959c-5.94214,-7.78238 -11.18091,-16.09852 -16.80375,-24.12943c-2.92855,-4.1828 -6.08123,-8.20865 -9.12695,-12.31058c0.00574,-0.00515 0.02072,-0.0039 0.02072,-0.0039z" fill="#FF7300"/>
  <path id="svg_12" d="m256.89038,389.90008c-7.23907,2.34388 -14.50868,4.60276 -21.71295,7.05369c-8.45674,2.87707 -16.85671,5.92108 -26.06236,9.16821c0,-6.18164 -0.10047,-11.74744 0.02153,-17.30835c0.23306,-10.62427 1.37584,-21.30936 0.52029,-31.83752c-0.34944,-4.30015 -4.69186,-8.42197 -7.60255,-12.33893c-7.20708,-9.69864 -14.6362,-19.23233 -22.58074,-29.62308c5.58211,-1.74753 10.37744,-3.32346 15.21726,-4.74835c10.02136,-2.95044 20.09845,-5.71726 30.07292,-8.81607c1.86215,-0.57856 3.80824,-2.03287 4.94104,-3.63178c9.02339,-12.7363 17.85992,-25.60498 27.0266,-38.62558c0.27282,-0.19256 0.25784,-0.19381 0.25601,0.2793c-0.03104,43.78455 -0.06024,87.09604 -0.08945,130.4075c0,0 -0.00919,0.02096 -0.0076,0.02096z" fill="#FFE257"/>
  <path id="svg_14" d="m257.29395,389.92212c-0.36676,-43.35446 -0.33756,-86.66595 -0.31226,-130.44534c3.04755,3.62881 6.20023,7.65466 9.12878,11.83746c5.62284,8.03091 10.86161,16.34705 16.80375,24.12943c2.13229,2.79263 5.5411,5.28381 8.87048,6.36959c12.60647,4.11112 25.42337,7.57578 38.14917,11.32419c1.37793,0.40585 2.67572,1.08377 4.76056,1.9454c-5.18619,6.82401 -10.0398,13.24396 -14.93039,19.63563c-4.53784,5.93063 -9.27854,11.71588 -13.57739,17.81369c-1.32251,1.87594 -2.09934,4.57534 -2.07773,6.8879c0.12738,13.63257 0.56881,27.26212 0.89114,40.89301c0.04147,1.75449 0.00568,3.5108 0.00568,6.03613c-16.37415,-5.66989 -31.845,-11.02701 -47.71179,-16.42709z" fill="#FFBC12"/>
 </g>
</svg>