<svg width="15" height="15" viewBox="0 0 15 15" fill="none" xmlns="http://www.w3.org/2000/svg">
<path d="M4.03455 1.28509L6.59597 3.90816C6.91437 3.81552 7.24367 3.76512 7.57534 3.75827L8.32869 3.83322L10.9655 1.28509L11.3421 1.06026C10.1819 0.366518 8.8537 0 7.5 0C6.1463 0 4.81812 0.366518 3.65787 1.06026C3.80854 1.06026 3.95921 1.21015 4.03455 1.28509ZM12.6982 2.48421L12.5475 2.33432C12.4771 2.26566 12.3824 2.2272 12.2838 2.2272C12.1852 2.2272 12.0906 2.26566 12.0202 2.33432L9.76008 4.58267H9.91075L10.3628 5.10728L10.4381 5.18222L12.6982 2.93388C12.7471 2.86902 12.7735 2.79012 12.7735 2.70904C12.7735 2.62797 12.7471 2.54907 12.6982 2.48421ZM10.5134 9.75386L10.3628 9.90375C10.2252 10.0661 10.074 10.2165 9.91075 10.3534L9.83541 10.4284L12.0955 12.6767C12.1607 12.7254 12.24 12.7517 12.3215 12.7517C12.403 12.7517 12.4823 12.7254 12.5475 12.6767L12.6982 12.5268C12.7672 12.4568 12.8059 12.3626 12.8059 12.2645C12.8059 12.1664 12.7672 12.0723 12.6982 12.0022L10.4381 9.75386H10.5134ZM9.3834 6.23145C9.11292 5.88456 8.74627 5.62403 8.32869 5.482C8.09271 5.36383 7.83773 5.28773 7.57534 5.25717H7.5C7.03629 5.26155 6.58516 5.40772 6.20781 5.67586C5.83046 5.944 5.54515 6.32112 5.39059 6.75607C5.27783 7.07674 5.23959 7.41867 5.27873 7.75616C5.31788 8.09365 5.43339 8.41793 5.6166 8.70463C5.91795 9.1543 6.21929 9.45408 6.6713 9.60397C7.20383 9.81276 7.79616 9.81276 8.32869 9.60397C8.61894 9.49094 8.88255 9.3194 9.10295 9.10015C9.32335 8.88089 9.49578 8.61865 9.6094 8.32991C9.74067 7.9999 9.78871 7.64293 9.74931 7.2902C9.70991 6.93746 9.58428 6.59969 9.3834 6.3064V6.23145ZM13.9789 3.75827L13.7529 4.05805L11.1161 6.60618C11.2629 7.19684 11.2629 7.81419 11.1161 8.40485L13.7529 10.953L13.9789 11.2528C14.6476 10.116 15 8.82262 15 7.50552C15 6.18841 14.6476 4.89505 13.9789 3.75827ZM10.9655 13.7259L8.40403 11.1029C8.10994 11.1892 7.80635 11.2396 7.5 11.2528H7.42466C7.17165 11.253 6.91926 11.2279 6.6713 11.1778L4.03455 13.7259L3.7332 13.9508C4.78791 14.6253 5.99328 15 7.27399 15H7.5C8.85605 15 10.1368 14.6253 11.2668 13.9508L10.9655 13.7259ZM1.24712 10.953L3.88388 8.40485C3.69881 7.81943 3.69881 7.1916 3.88388 6.60618L1.17178 4.05805L1.02111 3.75827C0.352437 4.89505 0 6.18841 0 7.50552C0 8.82262 0.352437 10.116 1.02111 11.2528L1.24712 10.953ZM5.08925 10.3534C4.92604 10.2165 4.77483 10.0661 4.63723 9.90375L4.5619 9.82881L2.30182 12.0772C2.25292 12.142 2.22649 12.2209 2.22649 12.302C2.22649 12.3831 2.25292 12.462 2.30182 12.5268L2.45249 12.6767C2.52291 12.7454 2.61757 12.7838 2.71617 12.7838C2.81477 12.7838 2.90943 12.7454 2.97984 12.6767L5.23992 10.4284H5.08925V10.3534ZM4.48656 5.25717L4.63723 5.10728L5.08925 4.65761L5.16459 4.58267L2.90451 2.33432C2.83931 2.28567 2.76 2.25938 2.6785 2.25938C2.597 2.25938 2.5177 2.28567 2.45249 2.33432L2.30182 2.48421C2.2328 2.55426 2.19414 2.64843 2.19414 2.74652C2.19414 2.8446 2.2328 2.93878 2.30182 3.00882L4.5619 5.25717H4.48656Z" fill="white"/>
</svg>
