<svg width="14" height="15" viewBox="0 0 14 15" fill="none" xmlns="http://www.w3.org/2000/svg">
<path d="M1.75 0C0.784 0 0 0.7637 0 1.70469V3.28937C0.000372833 3.65395 0.100766 4.01181 0.29079 4.32591C0.480813 4.64001 0.75356 4.89894 1.0808 5.07588L5.1072 7.25652C4.26384 7.67126 3.58865 8.35086 3.19073 9.18553C2.79281 10.0202 2.69539 10.9612 2.91423 11.8564C3.13306 12.7517 3.65536 13.5489 4.39673 14.1193C5.13811 14.6897 6.05526 15 7 15C7.94474 15 8.86189 14.6897 9.60327 14.1193C10.3446 13.5489 10.8669 12.7517 11.0858 11.8564C11.3046 10.9612 11.2072 10.0202 10.8093 9.18553C10.4113 8.35086 9.73616 7.67126 8.8928 7.25652L12.9206 5.07724C13.2478 4.90001 13.5204 4.6408 13.7102 4.32645C13.9 4.0121 14 3.65405 14 3.28937V1.70469C14 0.7637 13.216 0 12.25 0H1.75ZM5.6 5.96232V1.36375H8.4V5.96232L7 6.72056L5.6 5.96232ZM9.8 10.91C9.8 11.6334 9.505 12.3271 8.9799 12.8386C8.4548 13.3501 7.74261 13.6375 7 13.6375C6.25739 13.6375 5.5452 13.3501 5.0201 12.8386C4.495 12.3271 4.2 11.6334 4.2 10.91C4.2 10.1866 4.495 9.49288 5.0201 8.98137C5.5452 8.46987 6.25739 8.1825 7 8.1825C7.74261 8.1825 8.4548 8.46987 8.9799 8.98137C9.505 9.49288 9.8 10.1866 9.8 10.91Z" fill="white"/>
</svg>
